<?xml version="1.0" encoding="iso-8859-1"?>
<!-- Uploaded to: SVG Repo, www.svgrepo.com, Generator: SVG Repo Mixer Tools -->
<svg fill="#000000" version="1.1" id="Layer_1" xmlns="http://www.w3.org/2000/svg" xmlns:xlink="http://www.w3.org/1999/xlink" 
	 viewBox="0 0 512 512" xml:space="preserve">
<g>
	<g>
		<path d="M506.583,9.847C501.727,3.635,494.286,0,486.402,0h-256c-6.793,0-13.303,2.697-18.099,7.501l-204.8,204.8
			c-4.804,4.796-7.501,11.307-7.501,18.099v256c0,14.14,11.46,25.6,25.6,25.6h409.6c14.14,0,25.6-11.46,25.6-25.6V233.549
			l50.432-201.745C513.145,24.158,511.43,16.06,506.583,9.847z M435.202,486.4h-409.6V256h409.6V486.4z M435.202,230.4h-409.6
			l204.8-204.8h256L435.202,230.4z"/>
	</g>
</g>
<g>
	<g>
		<rect x="332.802" y="281.6" width="76.8" height="25.6"/>
	</g>
</g>
</svg>

<svg xmlns="http://www.w3.org/2000/svg" width="30px" height="30px" fill="none" viewBox="0 0 24 24" class="seo-pages-0" role="img" version="1.1"><path fill="#121214" d="M19.67 21.45H7.27c-1.33 0-2.5-.85-2.91-2.1l-2.2-6.68c-.38-1.14-.05-2.4.83-3.21l6.08-5.63c.8-.75 2.28-1.33 3.38-1.33h8.92c.35 0 .62.28.62.62 0 .34-.28.62-.62.62h-8.92c-.78 0-1.96.46-2.53.99l-6.09 5.64c-.52.48-.71 1.23-.49 1.9l2.2 6.68c.25.75.94 1.25 1.72 1.25h12.4c.59 0 1.07-.48 1.07-1.07V5.51c0-.34.28-.62.62-.62.34 0 .62.28.62.62v13.61a2.3 2.3 0 0 1-2.3 2.33Z"></path><path fill="#121214" fill-rule="evenodd" d="M18.15 11.33H6.92c-.7 0-.93-.39-1-.56-.06-.17-.16-.62.35-1.1l4.27-4.03c.46-.43 1.27-.76 1.9-.76h5.71c.81 0 1.47.66 1.47 1.47v3.51c0 .81-.66 1.47-1.47 1.47Zm-10.5-1.25h10.5c.13 0 .22-.1.22-.22v-3.5c0-.12-.1-.22-.22-.22h-5.71c-.31 0-.82.2-1.04.42l-3.75 3.52Z" clip-rule="evenodd"></path><path fill="#121214" d="M17.04 13.72h1.95c.35 0 .62-.28.62-.62 0-.34-.27-.62-.62-.62h-1.95c-.34 0-.62.28-.62.62 0 .34.27.62.62.62Z"></path></svg>